<svg xmlns="http://www.w3.org/2000/svg" width="24" height="24" viewBox="0 0 24 24">
  <path class="foreground-fill" fill="#000000" d="M6 2 L18 2 Q21 2 21 5 L21 17 Q21 20 18 20 L6 20 Q3 20 3 17 L3 5 Q3 2 6 2 Z M6 4 Q5 4 5 5 L5 17 Q5 18 6 18 L18 18 Q19 18 19 17 L19 5 Q19 4 18 4 L6 4 Z"/>
  <path class="foreground-fill" fill="#000000" d="M4 10 L20 10 Q20.41 10 20.71 10.29 Q21 10.59 21 11 Q21 11.41 20.71 11.71 Q20.41 12 20 12 L4 12 Q3.59 12 3.29 11.71 Q3 11.41 3 11 Q3 10.59 3.29 10.29 Q3.59 10 4 10 Z"/>
  <path class="foreground-fill" fill="#000000" d="M13 3 L13 11 Q13 11.41 12.71 11.71 Q12.41 12 12 12 Q11.59 12 11.29 11.71 Q11 11.41 11 11 L11 3 Q11 2.59 11.29 2.29 Q11.59 2 12 2 Q12.41 2 12.71 2.29 Q13 2.59 13 3 Z"/>
  <path class="foreground-fill" fill="#000000" d="M8.83 19.55 L6.83 22.55 Q6.6 22.9 6.2 22.98 Q5.79 23.06 5.45 22.83 Q5.1 22.6 5.02 22.2 Q4.94 21.79 5.17 21.45 L7.17 18.45 Q7.4 18.1 7.8 18.02 Q8.21 17.94 8.55 18.17 Q8.9 18.4 8.98 18.8 Q9.06 19.21 8.83 19.55 Z"/>
  <path class="foreground-fill" fill="#000000" d="M17.17 22.55 L15.17 19.55 Q14.94 19.21 15.02 18.8 Q15.1 18.4 15.45 18.17 Q15.79 17.94 16.2 18.02 Q16.6 18.1 16.83 18.45 L18.83 21.45 Q19.06 21.79 18.98 22.2 Q18.9 22.6 18.55 22.83 Q18.21 23.06 17.8 22.98 Q17.4 22.9 17.17 22.55 Z"/>
  <path class="foreground-fill" fill="#000000" d="M8 14 L8.01 14 Q8.42 14 8.72 14.29 Q9.01 14.59 9.01 15 Q9.01 15.41 8.72 15.71 Q8.42 16 8.01 16 L8 16 Q7.59 16 7.29 15.71 Q7 15.41 7 15 Q7 14.59 7.29 14.29 Q7.59 14 8 14 Z"/>
  <path class="foreground-fill" fill="#000000" d="M16 14 L16.01 14 Q16.42 14 16.72 14.29 Q17.01 14.59 17.01 15 Q17.01 15.41 16.72 15.71 Q16.42 16 16.01 16 L16 16 Q15.59 16 15.29 15.71 Q15 15.41 15 15 Q15 14.59 15.29 14.29 Q15.59 14 16 14 Z"/>
</svg>
