<svg xmlns="http://www.w3.org/2000/svg" width="24" height="24" viewBox="0 0 24 24">
  <path class="foreground-fill" fill="#000000" d="M1.94 20.76 Q11.59 17.33 14.29 14.63 Q15.32 13.61 15.32 12.16 Q15.32 10.71 14.3 9.68 Q13.27 8.66 11.82 8.65 Q10.37 8.65 9.35 9.68 Q6.64 12.39 3.21 22.03 L3.21 22.03 L2.27 21.7 L1.94 20.76 Z M2.6 22.64 Q2.44 22.7 2.27 22.7 Q2.1 22.7 1.94 22.64 Q1.55 22.5 1.37 22.13 Q1.19 21.76 1.33 21.37 L1.33 21.37 Q4.91 11.29 7.93 8.26 Q9.55 6.65 11.82 6.65 Q14.1 6.66 15.71 8.27 Q17.32 9.88 17.32 12.16 Q17.32 14.44 15.71 16.05 Q12.69 19.07 2.6 22.64 Z M7.93 14.71 L5.88 12.67 Q5.59 12.38 5.59 11.96 Q5.59 11.55 5.88 11.25 Q6.17 10.96 6.59 10.96 Q7 10.96 7.3 11.25 L9.35 13.29 Q9.64 13.58 9.64 14 Q9.64 14.41 9.35 14.71 Q9.06 15 8.64 15 Q8.23 15 7.93 14.71 Z M14.63 15.71 L12.17 13.25 Q11.88 12.95 11.88 12.54 Q11.88 12.13 12.17 11.83 Q12.47 11.54 12.88 11.54 Q13.29 11.54 13.59 11.83 L16.05 14.29 Q16.34 14.59 16.34 15 Q16.34 15.41 16.05 15.71 Q15.75 16 15.34 16 Q14.93 16 14.63 15.71 Z"/>
  <path class="foreground-fill" fill="#000000" d="M21.17 9.55 Q20.13 8 18.5 8 Q17.3 8 15.73 9.68 L15 9 L15.83 8.45 Q16.87 10 18.5 10 Q20.13 10 21.17 8.45 L22 9 L21.17 9.55 Z M22.83 8.45 Q23 8.7 23 9 Q23 9.3 22.83 9.55 Q21.21 12 18.5 12 Q15.79 12 14.17 9.55 Q13.98 9.26 14 8.92 Q14.03 8.57 14.27 8.32 Q16.42 6 18.5 6 Q21.21 6 22.83 8.45 Z"/>
  <path class="foreground-fill" fill="#000000" d="M15.55 2.83 Q14 3.87 14 5.5 Q14 7.13 15.55 8.17 L15 9 L14.32 8.26 Q16 6.72 16 5.5 Q16 3.87 14.45 2.83 L15 2 L15.55 2.83 Z M14.45 1.17 Q14.7 1 15 1 Q15.3 1 15.55 1.17 Q18 2.79 18 5.5 Q18 7.6 15.68 9.74 Q15.42 9.97 15.08 10 Q14.73 10.02 14.45 9.83 Q12 8.21 12 5.5 Q12 2.79 14.45 1.17 Z"/>
</svg>
