<svg xmlns="http://www.w3.org/2000/svg" width="24" height="24" viewBox="0 0 24 24">
  <path class="foreground-fill" fill="#000000" d="M18 4 Q21 4 21 7 L21 15.53 Q21 15.76 21.11 15.97 L22.17 18.1 Q22.68 19.1 22.09 20.05 Q21.49 21.01 20.37 21 L3.62 21 Q2.51 21.01 1.91 20.05 Q1.32 19.1 1.83 18.1 L2.89 15.97 Q3 15.76 3 15.53 L3 7 Q3 4 6 4 L18 4 Z M18 6 L6 6 Q5 6 5 7 L5 15.53 Q5 16.24 4.68 16.87 L3.61 19 L3.61 19 L3.61 19 Q3.61 19 3.62 19 L20.39 19 L20.39 19 L20.39 19 L19.32 16.87 Q19 16.24 19 15.53 L19 7 Q19 6 18 6 Z"/>
  <path class="foreground-fill" fill="#000000" d="M20.05 16.99 L3.95 16.99 Q3.53 16.99 3.24 16.69 Q2.95 16.4 2.95 15.99 Q2.95 15.57 3.24 15.28 Q3.53 14.99 3.95 14.99 L20.05 14.99 Q20.47 14.99 20.76 15.28 Q21.05 15.57 21.05 15.99 Q21.05 16.4 20.76 16.69 Q20.47 16.99 20.05 16.99 Z"/>
</svg>
