<svg xmlns="http://www.w3.org/2000/svg" width="24" height="24" viewBox="0 0 24 24">
  <path class="foreground-fill" fill="#000000" d="M20.29 21.71 L15.95 17.37 Q15.66 17.07 15.66 16.66 Q15.66 16.25 15.95 15.95 Q16.25 15.66 16.66 15.66 Q17.07 15.66 17.37 15.95 L21.71 20.29 Q22 20.59 22 21 Q22 21.41 21.71 21.71 Q21.41 22 21 22 Q20.59 22 20.29 21.71 Z"/>
  <path class="foreground-fill" fill="#000000" d="M20 11 Q20 14.73 17.36 17.36 Q14.73 20 11 20 Q7.27 20 4.64 17.36 Q2 14.73 2 11 Q2 7.27 4.64 4.64 Q7.27 2 11 2 Q14.73 2 17.36 4.64 Q20 7.27 20 11 Z M18 11 Q18 8.1 15.95 6.05 Q13.9 4 11 4 Q8.1 4 6.05 6.05 Q4 8.1 4 11 Q4 13.9 6.05 15.95 Q8.1 18 11 18 Q13.9 18 15.95 15.95 Q18 13.9 18 11 Z"/>
</svg>
