<svg xmlns="http://www.w3.org/2000/svg" width="24" height="24" viewBox="0 0 24 24">
  <path class="foreground-fill" fill="#000000" d="M6 10 L10 10 Q10.41 10 10.71 10.29 Q11 10.59 11 11 Q11 11.41 10.71 11.71 Q10.41 12 10 12 L6 12 Q5.59 12 5.29 11.71 Q5 11.41 5 11 Q5 10.59 5.29 10.29 Q5.59 10 6 10 Z"/>
  <path class="foreground-fill" fill="#000000" d="M9 9 L9 13 Q9 13.41 8.71 13.71 Q8.41 14 8 14 Q7.59 14 7.29 13.71 Q7 13.41 7 13 L7 9 Q7 8.59 7.29 8.29 Q7.59 8 8 8 Q8.41 8 8.71 8.29 Q9 8.59 9 9 Z"/>
  <path class="foreground-fill" fill="#000000" d="M15 11 L15.01 11 Q15.42 11 15.72 11.29 Q16.01 11.59 16.01 12 Q16.01 12.41 15.72 12.71 Q15.42 13 15.01 13 L15 13 Q14.59 13 14.29 12.71 Q14 12.41 14 12 Q14 11.59 14.29 11.29 Q14.59 11 15 11 Z"/>
  <path class="foreground-fill" fill="#000000" d="M18 9 L18.01 9 Q18.42 9 18.72 9.29 Q19.01 9.59 19.01 10 Q19.01 10.41 18.72 10.71 Q18.42 11 18.01 11 L18 11 Q17.59 11 17.29 10.71 Q17 10.41 17 10 Q17 9.59 17.29 9.29 Q17.59 9 18 9 Z"/>
  <path class="foreground-fill" fill="#000000" d="M17.32 6 L6.68 6 Q3.97 6 3.7 8.69 Q3.69 8.72 3.69 8.75 Q3.68 8.83 3.68 8.88 Q3 14.5 3 16 Q3 18 5 18 Q5.59 18 6.29 17.29 L7.71 15.88 Q8.59 15 9.83 15 L14.17 15 Q15.41 15 16.29 15.88 L17.71 17.29 Q18.41 18 19 18 Q21 18 21 16 Q21 14.5 20.32 8.86 Q20.32 8.83 20.31 8.75 Q20.31 8.72 20.3 8.71 Q20.03 6 17.32 6 Z M17.32 4 Q21.83 4 22.29 8.47 Q22.29 8.5 22.3 8.55 Q22.3 8.59 22.31 8.62 Q23 14.38 23 16 Q23 20 19 20 Q17.59 20 16.29 18.71 L14.88 17.29 Q14.59 17 14.17 17 L9.83 17 Q9.41 17 9.12 17.29 L7.71 18.71 Q6.41 20 5 20 Q1 20 1 16 Q1 14.38 1.69 8.61 Q1.7 8.59 1.7 8.55 Q1.71 8.5 1.71 8.49 Q2.17 4 6.68 4 L17.32 4 Z"/>
</svg>
