<svg xmlns="http://www.w3.org/2000/svg" width="24" height="24" viewBox="0 0 24 24">
  <path class="foreground-fill" fill="#000000" d="M7 15.3 Q10 15.3 10 12.25 Q10 10.93 8.66 9.83 Q6.54 8.11 6.02 5.5 L7 5.3 L7.98 5.5 Q7.45 8.15 5.33 9.84 Q4 10.91 4 12.25 Q4 15.3 7 15.3 Z M7 17.3 Q4.93 17.3 3.46 15.81 Q2 14.33 2 12.25 Q2 9.95 4.09 8.28 Q5.63 7.04 6.02 5.1 Q6.08 4.81 6.29 4.59 Q6.51 4.38 6.8 4.32 Q7.21 4.24 7.55 4.47 Q7.9 4.7 7.98 5.1 Q8.36 7.01 9.92 8.29 Q12 9.98 12 12.25 Q12 14.33 10.54 15.81 Q9.07 17.3 7 17.3 Z"/>
  <path class="foreground-fill" fill="#000000" d="M11.71 6.07 Q12.66 4.56 13.02 2.82 Q13.11 2.41 13.45 2.18 Q13.8 1.96 14.2 2.04 Q14.5 2.1 14.71 2.32 Q14.92 2.53 14.98 2.82 Q15.69 6.4 18.62 8.74 Q22 11.44 22 15.02 Q22.02 20.36 17.09 22.41 Q12.16 24.47 8.38 20.7 Q8.09 20.41 8.09 19.99 Q8.09 19.58 8.38 19.28 Q8.67 18.99 9.09 18.99 Q9.5 18.99 9.8 19.28 Q12.63 22.11 16.32 20.57 Q20.02 19.03 20 15.02 Q20 12.4 17.38 10.3 Q13.88 7.5 13.02 3.22 L14 3.02 L14.98 3.22 Q14.54 5.32 13.41 7.13 Q13.19 7.48 12.78 7.57 Q12.38 7.67 12.03 7.45 Q11.68 7.23 11.59 6.82 Q11.49 6.42 11.71 6.07 Z"/>
</svg>
